<?xml version="1.0" standalone="no"?>
<!DOCTYPE svg PUBLIC "-//W3C//DTD SVG 20010904//EN"
 "http://www.w3.org/TR/2001/REC-SVG-20010904/DTD/svg10.dtd">
<svg version="1.0" xmlns="http://www.w3.org/2000/svg"
 width="200.000000pt" height="200.000000pt" viewBox="0 0 200.000000 200.000000"
 preserveAspectRatio="xMidYMid meet">
<metadata>
Created by potrace 1.11, written by Peter Selinger 2001-2013
</metadata>
<g transform="translate(0.000000,200.000000) scale(0.100000,-0.100000)"
fill="#000000" stroke="none">
<path d="M905 1893 c-189 -21 -393 -115 -518 -239 -239 -237 -325 -516 -263
-851 20 -109 99 -269 180 -367 185 -224 431 -337 718 -331 495 11 885 419 873
911 -4 152 -26 247 -87 372 -114 235 -335 419 -573 478 -16 4 -34 8 -40 10
-61 15 -220 24 -290 17z"/>
</g>
</svg>
